name C:/MyDriveSym/Projects/mobilecap/Data\Session20210813_0002\mocap\ForceDataProcessed\walkingTS4_forces.mot
datacolumns 19
datarows 27
range 0.91950000 0.93250000
endheader 
time	R_ground_force_vx	R_ground_force_vy	R_ground_force_vz	R_ground_force_px	R_ground_force_py	R_ground_force_pz	R_ground_torque_x	R_ground_torque_y	R_ground_torque_z	L_ground_force_vx	L_ground_force_vy	L_ground_force_vz	L_ground_force_px	L_ground_force_py	L_ground_force_pz	L_ground_torque_x	L_ground_torque_y	L_ground_torque_z	
          0.91950000	         16.37210100	        108.31311900	          7.78590800	          0.35760800	          0.00600000	         -0.16668100	          0.00000000	         -0.50655600	          0.00000000	        -99.20114600	        727.80179500	         17.91001000	          0.87283000	          0.00600000	         -0.29779100	          0.00000000	          0.64656900	          0.00000000	
          0.92000000	         16.06807100	        106.75356600	          7.72918000	          0.35797200	          0.00600000	         -0.16652500	          0.00000000	         -0.49802600	          0.00000000	        -99.23762700	        728.58982500	         18.01257300	          0.87299400	          0.00600000	         -0.29783000	          0.00000000	          0.63366200	          0.00000000	
          0.92050000	         15.76641500	        105.20599400	          7.67228900	          0.35834200	          0.00600000	         -0.16636700	          0.00000000	         -0.48962000	          0.00000000	        -99.27036300	        729.36351300	         18.11362200	          0.87315900	          0.00600000	         -0.29786900	          0.00000000	          0.62078000	          0.00000000	
          0.92100000	         15.46713800	        103.67039800	          7.61524500	          0.35871700	          0.00600000	         -0.16620600	          0.00000000	         -0.48133900	          0.00000000	        -99.29937200	        730.12289800	         18.21315300	          0.87332300	          0.00600000	         -0.29790700	          0.00000000	          0.60792300	          0.00000000	
          0.92150000	         15.17024800	        102.14676800	          7.55805700	          0.35909700	          0.00600000	         -0.16604200	          0.00000000	         -0.47318200	          0.00000000	        -99.32467100	        730.86802100	         18.31116300	          0.87348600	          0.00600000	         -0.29794600	          0.00000000	          0.59509200	          0.00000000	
          0.92200000	         14.87574900	        100.63509500	          7.50073500	          0.35948200	          0.00600000	         -0.16587700	          0.00000000	         -0.46515000	          0.00000000	        -99.34627700	        731.59892600	         18.40764800	          0.87365000	          0.00600000	         -0.29798500	          0.00000000	          0.58229100	          0.00000000	
          0.92250000	         14.58364800	         99.13536700	          7.44328700	          0.35987300	          0.00600000	         -0.16570800	          0.00000000	         -0.45724300	          0.00000000	        -99.36420900	        732.31565800	         18.50260400	          0.87381300	          0.00600000	         -0.29802300	          0.00000000	          0.56951900	          0.00000000	
          0.92300000	         14.29395000	         97.64757500	          7.38572400	          0.36027000	          0.00600000	         -0.16553700	          0.00000000	         -0.44946100	          0.00000000	        -99.37848400	        733.01826100	         18.59603000	          0.87397600	          0.00600000	         -0.29806200	          0.00000000	          0.55677900	          0.00000000	
          0.92350000	         14.00665900	         96.17170300	          7.32805300	          0.36067200	          0.00600000	         -0.16536300	          0.00000000	         -0.44180500	          0.00000000	        -99.38912200	        733.70678300	         18.68792200	          0.87413900	          0.00600000	         -0.29810000	          0.00000000	          0.54407200	          0.00000000	
          0.92400000	         13.72178000	         94.70774000	          7.27028500	          0.36108100	          0.00600000	         -0.16518700	          0.00000000	         -0.43427400	          0.00000000	        -99.39614000	        734.38127300	         18.77827700	          0.87430200	          0.00600000	         -0.29813800	          0.00000000	          0.53140000	          0.00000000	
          0.92450000	         13.43931800	         93.25567000	          7.21242700	          0.36149600	          0.00600000	         -0.16500700	          0.00000000	         -0.42686900	          0.00000000	        -99.39955700	        735.04178000	         18.86709500	          0.87446500	          0.00600000	         -0.29817600	          0.00000000	          0.51876500	          0.00000000	
          0.92500000	         13.15927600	         91.81547800	          7.15448900	          0.36191700	          0.00600000	         -0.16482400	          0.00000000	         -0.41959000	          0.00000000	        -99.39939300	        735.68835500	         18.95437300	          0.87462700	          0.00600000	         -0.29821500	          0.00000000	          0.50616700	          0.00000000	
          0.92550000	         12.88165800	         90.38714600	          7.09648000	          0.36234500	          0.00600000	         -0.16463900	          0.00000000	         -0.41243700	          0.00000000	        -99.39566800	        736.32105100	         19.04011000	          0.87479000	          0.00600000	         -0.29825300	          0.00000000	          0.49360900	          0.00000000	
          0.92600000	         12.60646700	         88.97065700	          7.03840800	          0.36277900	          0.00600000	         -0.16445000	          0.00000000	         -0.40541100	          0.00000000	        -99.38839900	        736.93992200	         19.12430600	          0.87495200	          0.00600000	         -0.29829100	          0.00000000	          0.48109200	          0.00000000	
          0.92650000	         12.33370600	         87.56599400	          6.98028200	          0.36322000	          0.00600000	         -0.16425800	          0.00000000	         -0.39851100	          0.00000000	        -99.37760800	        737.54502200	         19.20695800	          0.87511400	          0.00600000	         -0.29832800	          0.00000000	          0.46861700	          0.00000000	
          0.92700000	         12.06337700	         86.17313500	          6.92211000	          0.36366900	          0.00600000	         -0.16406200	          0.00000000	         -0.39173900	          0.00000000	        -99.36331500	        738.13640900	         19.28806700	          0.87527600	          0.00600000	         -0.29836600	          0.00000000	          0.45618600	          0.00000000	
          0.92750000	         11.79548300	         84.79206100	          6.86390100	          0.36412500	          0.00600000	         -0.16386300	          0.00000000	         -0.38509400	          0.00000000	        -99.34553900	        738.71413900	         19.36763300	          0.87543700	          0.00600000	         -0.29840400	          0.00000000	          0.44380000	          0.00000000	
          0.92800000	         11.53002600	         83.42275100	          6.80566300	          0.36458800	          0.00600000	         -0.16366100	          0.00000000	         -0.37857700	          0.00000000	        -99.32430000	        739.27827200	         19.44565500	          0.87559900	          0.00600000	         -0.29844200	          0.00000000	          0.43146100	          0.00000000	
          0.92850000	         11.26700800	         82.06518200	          6.74740500	          0.36505900	          0.00600000	         -0.16345500	          0.00000000	         -0.37218800	          0.00000000	        -99.29962100	        739.82886800	         19.52213500	          0.87576000	          0.00600000	         -0.29847900	          0.00000000	          0.41917000	          0.00000000	
          0.92900000	         11.00642900	         80.71933100	          6.68913500	          0.36553900	          0.00600000	         -0.16324500	          0.00000000	         -0.36592700	          0.00000000	        -99.27152000	        740.36598900	         19.59707200	          0.87592100	          0.00600000	         -0.29851700	          0.00000000	          0.40692800	          0.00000000	
          0.92950000	         10.74829100	         79.38517400	          6.63086000	          0.36602600	          0.00600000	         -0.16303100	          0.00000000	         -0.35979600	          0.00000000	        -99.24001900	        740.88969600	         19.67046900	          0.87608300	          0.00600000	         -0.29855400	          0.00000000	          0.39473700	          0.00000000	
          0.93000000	         10.49259500	         78.06268600	          6.57259000	          0.36652300	          0.00600000	         -0.16281300	          0.00000000	         -0.35379400	          0.00000000	        -99.20514000	        741.40005400	         19.74232500	          0.87624300	          0.00600000	         -0.29859200	          0.00000000	          0.38259800	          0.00000000	
          0.93050000	         10.23934100	         76.75184200	          6.51433200	          0.36702800	          0.00600000	         -0.16259100	          0.00000000	         -0.34792100	          0.00000000	        -99.16690300	        741.89712800	         19.81264400	          0.87640400	          0.00600000	         -0.29862900	          0.00000000	          0.37051300	          0.00000000	
          0.93100000	          9.98853000	         75.45261600	          6.45609300	          0.36754200	          0.00600000	         -0.16236400	          0.00000000	         -0.34217900	          0.00000000	        -99.12532900	        742.38098400	         19.88142600	          0.87656500	          0.00600000	         -0.29866600	          0.00000000	          0.35848200	          0.00000000	
          0.93150000	          9.74016000	         74.16497900	          6.39788300	          0.36806600	          0.00600000	         -0.16213300	          0.00000000	         -0.33656800	          0.00000000	        -99.08044100	        742.85168900	         19.94867400	          0.87672600	          0.00600000	         -0.29870300	          0.00000000	          0.34650700	          0.00000000	
          0.93200000	          9.49423300	         72.88890300	          6.33970700	          0.36859900	          0.00600000	         -0.16189800	          0.00000000	         -0.33108800	          0.00000000	        -99.03225900	        743.30931300	         20.01439000	          0.87688600	          0.00600000	         -0.29874000	          0.00000000	          0.33458900	          0.00000000	
          0.93250000	          9.25074600	         71.62436100	          6.28157600	          0.36914200	          0.00600000	         -0.16165700	          0.00000000	         -0.32574000	          0.00000000	        -98.98080600	        743.75392600	         20.07857800	          0.87704700	          0.00600000	         -0.29877700	          0.00000000	          0.32273000	          0.00000000	
